<svg id="svg" version="1.1" width="400" height="400" viewBox="0 0 400 400" xmlns="http://www.w3.org/2000/svg" xmlns:xlink="http://www.w3.org/1999/xlink" ><g id="svgg"><path id="path0" d="M0.000 200.000 L 0.000 400.000 200.000 400.000 L 400.000 400.000 400.000 200.000 L 400.000 0.000 200.000 0.000 L 0.000 0.000 0.000 200.000 M211.200 118.799 C 218.656 119.347,223.624 120.473,233.200 123.788 C 244.190 127.591,245.609 127.923,247.801 127.200 C 249.447 126.656,250.448 124.997,251.162 121.627 C 251.844 118.412,253.083 117.549,255.002 118.952 C 255.807 119.541,255.815 119.607,257.384 139.600 C 257.721 143.890,258.167 149.290,258.375 151.600 C 259.210 160.842,259.120 164.583,258.059 164.733 C 255.907 165.038,255.363 164.556,254.192 161.306 C 249.028 146.979,240.770 136.775,230.003 131.417 C 226.809 129.828,225.584 129.359,220.600 127.821 C 219.500 127.482,215.720 126.904,212.201 126.537 C 189.502 124.170,171.803 133.486,161.164 153.400 C 157.939 159.437,154.819 167.591,154.047 172.000 C 153.835 173.210,153.394 175.640,153.066 177.400 C 151.723 184.618,151.261 194.998,151.989 201.600 C 152.643 207.535,153.228 211.756,153.597 213.200 C 153.793 213.970,154.346 216.130,154.825 218.000 C 157.933 230.129,164.149 241.703,171.760 249.534 C 188.069 266.313,213.005 270.175,234.800 259.297 L 238.600 257.400 238.703 232.435 C 238.830 201.795,238.743 201.047,234.597 197.018 C 232.271 194.757,229.406 193.720,224.534 193.375 C 219.783 193.039,217.979 191.381,220.080 189.280 C 220.932 188.428,275.121 188.605,276.069 189.462 C 278.129 191.327,276.418 192.983,272.038 193.361 C 267.363 193.765,263.993 195.678,262.377 198.846 C 260.408 202.705,260.264 204.800,260.025 233.200 L 259.800 259.800 254.000 262.664 C 242.781 268.205,230.301 271.546,217.668 272.390 C 205.874 273.178,194.493 272.591,186.400 270.776 C 184.310 270.307,181.880 269.770,181.000 269.583 C 158.280 264.745,135.496 242.531,129.757 219.621 C 129.236 217.543,128.633 215.293,128.416 214.621 C 126.820 209.678,126.223 192.897,127.414 186.468 C 129.131 177.203,132.087 167.939,135.207 162.039 C 150.418 133.284,172.179 119.500,204.000 118.461 C 204.990 118.428,208.230 118.581,211.200 118.799 " stroke="none" fill="#000000" fill-rule="evenodd"></path><path id="path1" d="M197.455 118.818 C 184.189 119.653,172.204 123.791,161.600 131.198 C 150.728 138.792,142.288 148.655,135.207 162.039 C 132.087 167.939,129.131 177.203,127.414 186.468 C 126.223 192.897,126.820 209.678,128.416 214.621 C 128.633 215.293,129.236 217.543,129.757 219.621 C 135.496 242.531,158.280 264.745,181.000 269.583 C 181.880 269.770,184.310 270.307,186.400 270.776 C 202.780 274.449,224.934 273.170,242.000 267.565 C 245.570 266.393,250.661 264.313,254.000 262.664 L 259.800 259.800 260.025 233.200 C 260.264 204.800,260.408 202.705,262.377 198.846 C 263.993 195.678,267.363 193.765,272.038 193.361 C 276.418 192.983,278.129 191.327,276.069 189.462 C 275.121 188.605,220.932 188.428,220.080 189.280 C 217.979 191.381,219.783 193.039,224.534 193.375 C 229.406 193.720,232.271 194.757,234.597 197.018 C 238.743 201.047,238.830 201.795,238.703 232.435 L 238.600 257.400 234.800 259.297 C 200.933 276.200,164.982 257.637,154.825 218.000 C 154.346 216.130,153.793 213.970,153.597 213.200 C 153.228 211.756,152.643 207.535,151.989 201.600 C 151.261 194.998,151.723 184.618,153.066 177.400 C 153.394 175.640,153.835 173.210,154.047 172.000 C 156.135 160.075,165.348 144.103,174.400 136.713 C 185.924 127.305,206.251 123.393,220.600 127.821 C 225.584 129.359,226.809 129.828,230.003 131.417 C 240.770 136.775,249.028 146.979,254.192 161.306 C 255.363 164.556,255.907 165.038,258.059 164.733 C 259.120 164.583,259.210 160.842,258.375 151.600 C 258.167 149.290,257.721 143.890,257.384 139.600 C 255.815 119.607,255.807 119.541,255.002 118.952 C 253.083 117.549,251.844 118.412,251.162 121.627 C 250.448 124.997,249.447 126.656,247.801 127.200 C 245.609 127.923,244.190 127.591,233.200 123.788 C 223.624 120.473,218.656 119.347,211.200 118.799 C 205.352 118.369,204.573 118.370,197.455 118.818 " stroke="none" fill="#ffffff" fill-rule="evenodd"></path></g></svg>