<svg xmlns="http://www.w3.org/2000/svg" xmlns:xlink="http://www.w3.org/1999/xlink" version="1.1" width="400" height="400" style=""><rect id="backgroundrect" width="100%" height="100%" x="0" y="0" fill="none" stroke="none"/><g class="currentLayer" style=""><title>Layer 1</title><g id="svgg" class="" fill="#000000" fill-opacity="1" transform=""><path id="path0" d="M204.265 126.500 C 204.516 126.914,207.504 126.880,207.763 126.460 C 207.878 126.273,207.098 126.138,206.028 126.160 C 204.958 126.182,204.165 126.335,204.265 126.500 " stroke="none" fill="#000000" fill-rule="evenodd" fill-opacity="1"/><path id="path1" d="M251.615 119.361 C 251.414 119.890,251.058 120.440,250.825 120.585 C 250.591 120.729,250.400 121.737,250.400 122.824 C 250.400 124.314,250.252 124.800,249.800 124.800 C 249.470 124.800,249.200 125.070,249.200 125.400 C 249.200 125.730,248.930 126.000,248.600 126.000 C 248.270 126.000,247.640 126.360,247.200 126.800 C 246.359 127.641,245.600 127.849,245.600 127.239 C 245.600 126.699,243.293 126.000,241.512 126.000 C 240.649 126.000,239.673 125.730,239.343 125.400 C 239.013 125.070,238.058 124.800,237.220 124.800 C 236.355 124.800,235.483 124.541,235.200 124.200 C 234.895 123.833,234.018 123.600,232.938 123.600 C 231.740 123.600,231.101 123.408,230.945 123.000 C 230.788 122.593,230.150 122.400,228.957 122.400 C 227.733 122.400,226.957 122.157,226.400 121.600 C 225.810 121.010,225.067 120.800,223.571 120.800 C 222.302 120.800,221.318 120.576,220.943 120.200 C 220.054 119.311,189.351 119.299,188.176 120.187 C 187.714 120.537,186.491 120.780,185.154 120.787 C 183.528 120.796,182.627 121.021,181.891 121.600 C 181.247 122.106,180.268 122.400,179.224 122.400 C 178.127 122.400,177.498 122.601,177.345 123.000 C 177.205 123.365,176.599 123.600,175.800 123.600 C 175.001 123.600,174.395 123.835,174.255 124.200 C 174.122 124.546,173.525 124.800,172.841 124.800 C 172.190 124.800,171.387 125.070,171.057 125.400 C 170.727 125.730,170.174 126.000,169.829 126.000 C 169.483 126.000,168.840 126.360,168.400 126.800 C 167.960 127.240,167.234 127.600,166.787 127.600 C 166.341 127.600,165.871 127.870,165.745 128.200 C 165.618 128.530,165.174 128.800,164.757 128.800 C 164.341 128.800,164.000 129.070,164.000 129.400 C 164.000 129.775,163.621 130.000,162.987 130.000 C 162.431 130.000,161.874 130.263,161.750 130.585 C 161.627 130.906,161.183 131.279,160.763 131.412 C 160.343 131.545,160.000 131.912,160.000 132.227 C 160.000 132.565,159.607 132.800,159.043 132.800 C 158.516 132.800,157.982 133.070,157.855 133.400 C 157.729 133.730,157.349 134.000,157.013 134.000 C 156.676 134.000,156.400 134.270,156.400 134.600 C 156.400 134.930,156.113 135.200,155.763 135.200 C 155.412 135.200,155.031 135.560,154.916 136.000 C 154.801 136.440,154.458 136.800,154.153 136.800 C 153.849 136.800,153.600 137.070,153.600 137.400 C 153.600 137.730,153.330 138.000,153.000 138.000 C 152.670 138.000,152.400 138.270,152.400 138.600 C 152.400 138.930,152.124 139.200,151.787 139.200 C 151.451 139.200,151.071 139.470,150.945 139.800 C 150.818 140.130,150.464 140.400,150.157 140.400 C 149.851 140.400,149.600 140.760,149.600 141.200 C 149.600 141.644,149.333 142.000,149.000 142.000 C 148.670 142.000,148.400 142.270,148.400 142.600 C 148.400 142.930,148.130 143.200,147.800 143.200 C 147.470 143.200,147.200 143.470,147.200 143.800 C 147.200 144.130,146.942 144.400,146.627 144.400 C 146.312 144.400,145.945 144.743,145.812 145.163 C 145.679 145.583,145.306 146.027,144.985 146.150 C 144.663 146.274,144.400 146.746,144.400 147.200 C 144.400 147.654,144.130 148.129,143.800 148.255 C 143.470 148.382,143.200 148.736,143.200 149.043 C 143.200 149.349,142.930 149.600,142.600 149.600 C 142.267 149.600,142.000 149.956,142.000 150.400 C 142.000 150.840,141.744 151.200,141.432 151.200 C 141.119 151.200,140.745 151.740,140.600 152.400 C 140.455 153.060,140.081 153.600,139.768 153.600 C 139.437 153.600,139.200 153.996,139.200 154.551 C 139.200 155.074,138.930 155.726,138.600 156.000 C 138.270 156.274,138.000 156.746,138.000 157.049 C 138.000 157.352,137.730 157.600,137.400 157.600 C 137.003 157.600,136.800 157.997,136.800 158.773 C 136.800 159.595,136.560 160.022,136.000 160.200 C 135.449 160.375,135.200 160.805,135.200 161.584 C 135.200 162.220,134.937 162.815,134.600 162.945 C 134.249 163.079,134.000 163.679,134.000 164.387 C 134.000 165.199,133.801 165.600,133.400 165.600 C 132.973 165.600,132.800 166.035,132.800 167.111 C 132.800 168.127,132.538 168.847,132.000 169.307 C 131.560 169.684,131.194 170.399,131.187 170.896 C 131.180 171.393,130.910 172.149,130.587 172.576 C 130.264 173.004,130.000 173.871,130.000 174.505 C 130.000 175.139,129.730 175.927,129.400 176.257 C 129.014 176.643,128.800 177.632,128.800 179.029 C 128.800 180.692,128.660 181.200,128.200 181.200 C 127.705 181.200,127.600 181.928,127.600 185.351 C 127.600 188.553,127.463 189.616,127.000 190.000 C 126.130 190.722,126.118 203.475,126.987 204.624 C 127.424 205.201,127.578 206.602,127.587 210.100 C 127.598 214.005,127.701 214.800,128.200 214.800 C 128.672 214.800,128.800 215.356,128.800 217.400 C 128.800 219.444,128.928 220.000,129.400 220.000 C 129.845 220.000,130.000 220.468,130.000 221.813 C 130.000 223.055,130.189 223.698,130.600 223.855 C 130.930 223.982,131.200 224.492,131.200 224.989 C 131.200 225.486,131.560 226.350,132.000 226.909 C 132.440 227.469,132.800 228.398,132.800 228.976 C 132.800 229.553,133.070 230.129,133.400 230.255 C 133.730 230.382,134.000 230.731,134.000 231.030 C 134.000 231.880,135.655 234.846,136.259 235.078 C 136.556 235.192,136.800 235.716,136.800 236.243 C 136.800 236.827,137.034 237.200,137.400 237.200 C 137.775 237.200,138.000 237.579,138.000 238.213 C 138.000 238.769,138.270 239.329,138.600 239.455 C 138.930 239.582,139.200 240.026,139.200 240.443 C 139.200 240.859,139.470 241.200,139.800 241.200 C 140.130 241.200,140.400 241.470,140.400 241.800 C 140.400 242.130,140.729 242.729,141.131 243.131 C 141.532 243.532,141.977 244.162,142.118 244.531 C 142.259 244.899,142.561 245.200,142.787 245.200 C 143.014 245.200,143.200 245.470,143.200 245.800 C 143.200 246.130,143.470 246.400,143.800 246.400 C 144.130 246.400,144.400 246.670,144.400 247.000 C 144.400 247.330,144.670 247.600,145.000 247.600 C 145.330 247.600,145.600 247.788,145.600 248.017 C 145.600 248.497,149.909 252.800,150.389 252.800 C 150.564 252.800,150.801 253.160,150.916 253.600 C 151.031 254.040,151.412 254.400,151.763 254.400 C 152.113 254.400,152.400 254.670,152.400 255.000 C 152.400 255.330,152.670 255.600,153.000 255.600 C 153.330 255.600,153.600 255.870,153.600 256.200 C 153.600 256.533,153.956 256.800,154.400 256.800 C 154.844 256.800,155.200 257.067,155.200 257.400 C 155.200 257.732,155.555 258.000,155.997 258.000 C 156.435 258.000,157.018 258.360,157.293 258.800 C 157.568 259.240,158.000 259.600,158.253 259.600 C 158.507 259.600,158.818 259.870,158.945 260.200 C 159.079 260.551,159.679 260.800,160.387 260.800 C 161.199 260.800,161.600 260.999,161.600 261.400 C 161.600 261.775,161.979 262.000,162.613 262.000 C 163.169 262.000,163.729 262.270,163.855 262.600 C 163.982 262.930,164.336 263.200,164.643 263.200 C 164.949 263.200,165.560 263.560,166.000 264.000 C 166.440 264.440,167.256 264.800,167.813 264.800 C 168.369 264.800,168.929 265.070,169.055 265.400 C 169.197 265.770,169.805 266.000,170.643 266.000 C 171.583 266.000,172.000 266.185,172.000 266.600 C 172.000 267.006,172.406 267.200,173.256 267.200 C 173.947 267.200,174.712 267.474,174.957 267.809 C 175.202 268.144,176.122 268.532,177.001 268.671 C 177.881 268.810,178.718 269.105,178.863 269.326 C 179.008 269.547,180.148 269.813,181.396 269.916 C 182.805 270.033,183.745 270.312,183.875 270.652 C 184.027 271.048,184.933 271.204,187.143 271.213 C 189.195 271.221,190.455 271.419,190.976 271.813 C 192.152 272.702,223.661 272.690,224.400 271.800 C 224.774 271.350,225.777 271.200,228.420 271.200 C 231.018 271.200,232.100 271.042,232.543 270.600 C 232.931 270.212,233.921 270.000,235.343 270.000 C 236.660 270.000,237.760 269.783,238.084 269.458 C 238.382 269.161,239.475 268.790,240.513 268.634 C 241.757 268.447,242.400 268.155,242.400 267.775 C 242.400 267.360,242.902 267.200,244.213 267.200 C 245.455 267.200,246.098 267.011,246.255 266.600 C 246.383 266.266,246.978 266.000,247.594 266.000 C 248.203 266.000,248.907 265.752,249.159 265.450 C 249.410 265.147,250.332 264.785,251.208 264.645 C 252.237 264.481,252.800 264.180,252.800 263.795 C 252.800 263.399,253.206 263.200,254.013 263.200 C 254.721 263.200,255.321 262.951,255.455 262.600 C 255.587 262.258,256.183 262.000,256.843 262.000 C 257.605 262.000,258.000 261.795,258.000 261.400 C 258.000 261.067,258.356 260.800,258.800 260.800 C 259.570 260.800,259.600 260.532,259.603 253.700 C 259.604 249.795,259.872 243.360,260.197 239.400 C 260.574 234.816,260.791 226.950,260.795 217.749 C 260.799 205.396,260.887 203.226,261.400 202.800 C 261.745 202.514,262.000 201.642,262.000 200.751 C 262.000 199.639,262.170 199.200,262.600 199.200 C 262.930 199.200,263.200 198.930,263.200 198.600 C 263.200 198.270,263.476 198.000,263.813 198.000 C 264.149 198.000,264.529 197.730,264.655 197.400 C 264.782 197.070,265.136 196.800,265.443 196.800 C 265.749 196.800,266.000 196.544,266.000 196.232 C 266.000 195.919,266.540 195.545,267.200 195.400 C 267.860 195.255,268.400 194.881,268.400 194.568 C 268.400 194.153,268.939 194.000,270.400 194.000 C 271.911 194.000,272.400 193.853,272.400 193.400 C 272.400 192.986,272.815 192.800,273.737 192.800 C 275.595 192.800,277.107 190.317,275.824 189.372 C 274.594 188.467,220.736 188.521,219.829 189.429 C 218.307 190.950,219.460 192.800,221.931 192.800 C 222.614 192.800,223.212 193.054,223.345 193.400 C 223.521 193.859,224.274 194.000,226.545 194.000 C 228.815 194.000,229.569 194.141,229.745 194.600 C 229.871 194.930,230.223 195.200,230.526 195.200 C 230.829 195.200,231.451 195.515,231.906 195.900 C 232.362 196.285,233.200 196.940,233.768 197.356 C 234.335 197.772,234.800 198.357,234.800 198.656 C 234.800 198.955,235.070 199.200,235.400 199.200 C 235.730 199.200,236.000 199.476,236.000 199.813 C 236.000 200.149,236.270 200.529,236.600 200.655 C 236.930 200.782,237.200 201.136,237.200 201.443 C 237.200 201.749,237.471 202.000,237.803 202.000 C 238.335 202.000,238.393 205.264,238.303 229.885 L 238.200 257.770 236.669 258.132 C 235.828 258.331,235.043 258.743,234.927 259.047 C 234.804 259.367,234.143 259.600,233.357 259.600 C 232.476 259.600,232.000 259.792,232.000 260.147 C 232.000 260.488,231.363 260.780,230.309 260.922 C 229.378 261.046,228.553 261.340,228.475 261.574 C 228.397 261.808,227.718 262.000,226.967 262.000 C 226.133 262.000,225.288 262.312,224.800 262.800 C 224.193 263.407,223.467 263.600,221.787 263.600 C 220.190 263.600,219.511 263.767,219.345 264.200 C 219.149 264.711,217.644 264.800,209.200 264.800 C 200.756 264.800,199.251 264.711,199.055 264.200 C 198.886 263.758,198.188 263.600,196.413 263.600 C 194.617 263.600,194.000 263.457,194.000 263.043 C 194.000 262.345,193.129 262.000,191.367 262.000 C 190.419 262.000,190.000 261.816,190.000 261.400 C 190.000 261.005,189.605 260.800,188.843 260.800 C 188.183 260.800,187.587 260.542,187.455 260.200 C 187.321 259.849,186.721 259.600,186.013 259.600 C 185.232 259.600,184.800 259.398,184.800 259.032 C 184.800 258.719,184.260 258.345,183.600 258.200 C 182.940 258.055,182.400 257.681,182.400 257.368 C 182.400 257.056,182.117 256.800,181.771 256.800 C 181.426 256.800,180.873 256.530,180.543 256.200 C 180.213 255.870,179.596 255.600,179.171 255.600 C 178.747 255.600,178.400 255.330,178.400 255.000 C 178.400 254.670,178.130 254.400,177.800 254.400 C 177.470 254.400,177.200 254.130,177.200 253.800 C 177.200 253.470,177.038 253.200,176.841 253.200 C 176.643 253.200,175.562 252.300,174.439 251.200 C 173.315 250.100,172.217 249.200,171.998 249.200 C 171.779 249.200,171.600 248.930,171.600 248.600 C 171.600 248.270,171.330 248.000,171.000 248.000 C 170.670 248.000,170.400 247.724,170.400 247.387 C 170.400 247.051,170.130 246.671,169.800 246.545 C 169.470 246.418,169.200 246.064,169.200 245.757 C 169.200 245.451,168.930 245.200,168.600 245.200 C 168.270 245.200,168.000 244.930,168.000 244.600 C 168.000 244.270,167.730 244.000,167.400 244.000 C 167.067 244.000,166.800 243.644,166.800 243.200 C 166.800 242.760,166.440 242.040,166.000 241.600 C 165.560 241.160,165.200 240.620,165.200 240.400 C 165.200 240.180,164.930 240.000,164.600 240.000 C 164.205 240.000,164.000 239.605,164.000 238.843 C 164.000 238.183,163.742 237.587,163.400 237.455 C 163.070 237.329,162.800 236.971,162.800 236.662 C 162.800 236.352,162.530 235.874,162.200 235.600 C 161.870 235.326,161.600 234.764,161.600 234.351 C 161.600 233.938,161.240 233.240,160.800 232.800 C 160.360 232.360,160.000 231.662,160.000 231.249 C 160.000 230.836,159.730 230.274,159.400 230.000 C 159.070 229.726,158.800 228.993,158.800 228.371 C 158.800 227.749,158.557 227.096,158.261 226.920 C 157.964 226.744,157.610 225.895,157.475 225.032 C 157.339 224.170,157.022 223.337,156.771 223.182 C 156.519 223.026,156.219 222.067,156.104 221.049 C 155.969 219.852,155.703 219.200,155.348 219.200 C 154.951 219.200,154.800 218.600,154.800 217.029 C 154.800 215.632,154.586 214.643,154.200 214.257 C 153.782 213.839,153.600 212.815,153.600 210.878 C 153.600 208.895,153.428 207.955,153.000 207.600 C 152.488 207.175,152.400 205.114,152.400 193.600 C 152.400 182.086,152.488 180.025,153.000 179.600 C 153.435 179.239,153.600 178.285,153.600 176.138 C 153.600 173.873,153.741 173.121,154.200 172.945 C 154.638 172.777,154.800 172.088,154.800 170.400 C 154.800 168.820,154.972 168.019,155.343 167.877 C 155.641 167.763,155.983 166.938,156.103 166.046 C 156.223 165.153,156.609 164.134,156.960 163.782 C 157.312 163.431,157.600 162.520,157.600 161.759 C 157.600 160.898,157.827 160.288,158.200 160.145 C 158.535 160.016,158.800 159.422,158.800 158.800 C 158.800 158.178,159.065 157.584,159.400 157.455 C 159.751 157.321,160.000 156.721,160.000 156.013 C 160.000 155.232,160.202 154.800,160.568 154.800 C 160.881 154.800,161.252 154.275,161.393 153.633 C 161.534 152.992,161.908 152.367,162.224 152.246 C 162.541 152.124,162.800 151.564,162.800 151.000 C 162.800 150.436,163.070 149.871,163.400 149.745 C 163.730 149.618,164.000 149.283,164.000 149.000 C 164.000 148.717,164.270 148.382,164.600 148.255 C 164.930 148.129,165.200 147.777,165.200 147.475 C 165.200 147.172,165.560 146.598,166.000 146.200 C 166.440 145.802,166.800 145.234,166.800 144.938 C 166.800 144.642,167.070 144.400,167.400 144.400 C 167.730 144.400,168.000 144.130,168.000 143.800 C 168.000 143.470,168.270 143.200,168.600 143.200 C 168.933 143.200,169.200 142.844,169.200 142.400 C 169.200 141.956,169.467 141.600,169.800 141.600 C 170.130 141.600,170.400 141.330,170.400 141.000 C 170.400 140.670,170.676 140.400,171.013 140.400 C 171.349 140.400,171.729 140.130,171.855 139.800 C 171.982 139.470,172.336 139.200,172.643 139.200 C 172.949 139.200,173.200 138.930,173.200 138.600 C 173.200 138.270,173.470 138.000,173.800 138.000 C 174.133 138.000,174.400 137.644,174.400 137.200 C 174.400 136.684,174.667 136.400,175.151 136.400 C 175.564 136.400,176.126 136.130,176.400 135.800 C 176.674 135.470,177.236 135.200,177.649 135.200 C 178.062 135.200,178.400 134.930,178.400 134.600 C 178.400 134.270,178.747 134.000,179.171 134.000 C 179.596 134.000,180.213 133.730,180.543 133.400 C 180.873 133.070,181.424 132.800,181.768 132.800 C 182.112 132.800,182.618 132.440,182.893 132.000 C 183.199 131.510,183.826 131.200,184.509 131.200 C 185.132 131.200,185.727 130.935,185.855 130.600 C 185.995 130.235,186.601 130.000,187.400 130.000 C 188.199 130.000,188.805 129.765,188.945 129.400 C 189.107 128.977,189.768 128.800,191.187 128.800 C 192.337 128.800,193.200 128.618,193.200 128.376 C 193.200 128.143,193.365 128.055,193.566 128.179 C 193.767 128.303,194.006 128.181,194.098 127.907 C 194.356 127.133,217.501 127.192,217.981 127.969 C 218.184 128.298,219.260 128.606,220.596 128.716 C 222.005 128.833,222.945 129.112,223.075 129.452 C 223.209 129.801,223.924 130.000,225.043 130.000 C 226.338 130.000,226.800 130.158,226.800 130.600 C 226.800 131.015,227.217 131.200,228.153 131.200 C 229.170 131.200,229.559 131.399,229.716 132.000 C 229.857 132.541,230.262 132.800,230.963 132.800 C 231.618 132.800,232.000 133.021,232.000 133.400 C 232.000 133.730,232.341 134.000,232.757 134.000 C 233.174 134.000,233.618 134.270,233.745 134.600 C 233.871 134.930,234.431 135.200,234.987 135.200 C 235.621 135.200,236.000 135.425,236.000 135.800 C 236.000 136.130,236.270 136.400,236.600 136.400 C 236.930 136.400,237.200 136.676,237.200 137.013 C 237.200 137.349,237.487 137.735,237.838 137.870 C 238.637 138.177,244.000 143.543,244.000 144.036 C 244.000 144.236,244.270 144.400,244.600 144.400 C 244.930 144.400,245.200 144.648,245.200 144.951 C 245.200 145.254,245.470 145.726,245.800 146.000 C 246.130 146.274,246.400 146.817,246.400 147.206 C 246.400 147.596,246.670 148.018,247.000 148.145 C 247.330 148.271,247.600 148.607,247.600 148.891 C 247.600 149.175,247.960 149.632,248.400 149.907 C 248.852 150.190,249.200 150.840,249.200 151.403 C 249.200 152.023,249.427 152.400,249.800 152.400 C 250.200 152.400,250.400 152.800,250.400 153.600 C 250.400 154.400,250.600 154.800,251.000 154.800 C 251.415 154.800,251.600 155.217,251.600 156.157 C 251.600 156.995,251.830 157.603,252.200 157.745 C 252.530 157.871,252.800 158.431,252.800 158.987 C 252.800 159.544,253.160 160.360,253.600 160.800 C 254.040 161.240,254.400 161.938,254.400 162.351 C 254.400 162.764,254.670 163.326,255.000 163.600 C 255.330 163.874,255.600 164.346,255.600 164.649 C 255.600 165.338,257.649 165.391,258.320 164.720 C 258.900 164.140,258.960 161.346,258.400 161.000 C 258.151 160.846,258.000 157.088,258.000 151.053 C 258.000 143.143,257.892 141.210,257.413 140.576 C 256.962 139.981,256.820 138.450,256.800 134.000 C 256.780 129.550,256.638 128.019,256.187 127.424 C 255.795 126.905,255.600 125.674,255.600 123.720 C 255.600 121.287,255.465 120.676,254.800 120.107 C 254.360 119.730,254.000 119.192,254.000 118.911 C 254.000 117.951,252.008 118.327,251.615 119.361 M207.763 126.460 C 207.504 126.880,204.516 126.914,204.265 126.500 C 204.165 126.335,204.958 126.182,206.028 126.160 C 207.098 126.138,207.878 126.273,207.763 126.460 " stroke="none" fill="#000000" fill-rule="evenodd" fill-opacity="1"/></g></g></svg>