<?xml version="1.0" standalone="no"?>
<!DOCTYPE svg PUBLIC "-//W3C//DTD SVG 20010904//EN"
 "http://www.w3.org/TR/2001/REC-SVG-20010904/DTD/svg10.dtd">
<svg version="1.0" xmlns="http://www.w3.org/2000/svg"
 width="306.000000pt" height="150.000000pt" viewBox="0 0 306.000000 150.000000"
 preserveAspectRatio="xMidYMid meet">

<g transform="translate(0.000000,150.000000) scale(0.100000,-0.100000)" fill="#000000" stroke="none" fill-rule="evenodd">
<path d="M0 750 l0 -750 1530 0 1530 0 0 750 0 750 -1530 0 -1530 0 0 -750z
m1783 541 c54 -18 105 -30 113 -27 8 3 20 19 25 36 6 16 15 30 20 30 12 0 17
-28 24 -135 3 -49 8 -118 12 -152 4 -41 2 -63 -5 -63 -5 0 -26 35 -47 78 -80
169 -241 249 -427 212 -122 -24 -214 -96 -272 -211 -52 -104 -70 -198 -63
-338 11 -232 103 -397 265 -474 63 -30 74 -32 177 -32 98 0 116 3 168 27 l57
27 0 201 c0 260 -7 278 -107 295 -97 16 -33 25 172 25 118 0 215 -4 215 -9 0
-5 -20 -14 -45 -20 -28 -7 -49 -20 -57 -34 -9 -15 -15 -91 -18 -247 l-5 -225
-59 -28 c-93 -45 -162 -59 -301 -64 -269 -10 -443 69 -563 255 -109 168 -117
394 -22 581 82 163 225 281 384 317 101 23 242 13 359 -25z"/>
</g>
</svg>
